<svg width="61" height="61" viewBox="0 0 61 61" fill="none" xmlns="http://www.w3.org/2000/svg">
<path d="M51.1413 45.4879C50.0175 42.8261 48.3868 40.4083 46.3399 38.3692C44.2992 36.3242 41.8818 34.6938 39.2212 33.5679C39.1974 33.556 39.1736 33.55 39.1498 33.5381C42.861 30.8574 45.2736 26.4909 45.2736 21.5645C45.2736 13.4033 38.6613 6.79102 30.5002 6.79102C22.339 6.79102 15.7267 13.4033 15.7267 21.5645C15.7267 26.4909 18.1393 30.8574 21.8505 33.544C21.8267 33.556 21.8029 33.5619 21.7791 33.5738C19.1103 34.6997 16.7156 36.3141 14.6604 38.3752C12.6154 40.4159 10.9849 42.8333 9.85904 45.4938C8.75295 48.0986 8.15641 50.8912 8.10171 53.7205C8.10012 53.7841 8.11127 53.8473 8.13451 53.9065C8.15775 53.9657 8.1926 54.0197 8.23701 54.0652C8.28142 54.1107 8.3345 54.1469 8.39311 54.1716C8.45172 54.1963 8.51468 54.209 8.57827 54.209H12.1525C12.4146 54.209 12.6231 54.0005 12.6291 53.7443C12.7482 49.1455 14.5949 44.8386 17.8593 41.5741C21.237 38.1965 25.7226 36.3379 30.5002 36.3379C35.2777 36.3379 39.7633 38.1965 43.141 41.5741C46.4054 44.8386 48.2521 49.1455 48.3712 53.7443C48.3772 54.0064 48.5857 54.209 48.8478 54.209H52.422C52.4856 54.209 52.5486 54.1963 52.6072 54.1716C52.6658 54.1469 52.7189 54.1107 52.7633 54.0652C52.8077 54.0197 52.8426 53.9657 52.8658 53.9065C52.889 53.8473 52.9002 53.7841 52.8986 53.7205C52.839 50.873 52.2493 48.103 51.1413 45.4879ZM30.5002 31.8105C27.7659 31.8105 25.1924 30.7442 23.2564 28.8082C21.3204 26.8722 20.2541 24.2987 20.2541 21.5645C20.2541 18.8302 21.3204 16.2567 23.2564 14.3207C25.1924 12.3847 27.7659 11.3184 30.5002 11.3184C33.2344 11.3184 35.8079 12.3847 37.7439 14.3207C39.6799 16.2567 40.7462 18.8302 40.7462 21.5645C40.7462 24.2987 39.6799 26.8722 37.7439 28.8082C35.8079 30.7442 33.2344 31.8105 30.5002 31.8105Z" fill="black"/>
</svg>
